<svg width="37" height="38" viewBox="0 0 37 38" fill="none" xmlns="http://www.w3.org/2000/svg">
<g clip-path="url(#clip0_579_616)">
<path d="M18.5 38C28.7173 38 37 29.4934 37 19C37 8.50659 28.7173 0 18.5 0C8.28273 0 0 8.50659 0 19C0 29.4934 8.28273 38 18.5 38Z" fill="#6DA544"/>
<path d="M18.5001 7.43481L33.7827 19L18.5001 30.5652L3.21753 19L18.5001 7.43481Z" fill="#FFDA44"/>
<path d="M18.4999 25.6087C22.0537 25.6087 24.9347 22.6499 24.9347 19C24.9347 15.3502 22.0537 12.3914 18.4999 12.3914C14.9461 12.3914 12.0652 15.3502 12.0652 19C12.0652 22.6499 14.9461 25.6087 18.4999 25.6087Z" fill="#F0F0F0"/>
<path d="M15.2827 18.587C14.1637 18.587 13.0839 18.7618 12.0674 19.0862C12.1124 22.6962 14.9744 25.6088 18.5001 25.6088C20.6802 25.6088 22.6057 24.4943 23.7696 22.7909C21.7782 20.2305 18.7141 18.587 15.2827 18.587V18.587Z" fill="#0052B4"/>
<path d="M24.8156 20.2662C24.893 19.8562 24.9349 19.4332 24.9349 19C24.9349 15.3501 22.0539 12.3914 18.5001 12.3914C15.8484 12.3914 13.572 14.0391 12.5869 16.3917C13.4577 16.2063 14.3593 16.1088 15.2828 16.1088C19.0201 16.1087 22.4012 17.7042 24.8156 20.2662V20.2662Z" fill="#0052B4"/>
</g>
<defs>
<clipPath id="clip0_579_616">
<rect width="37" height="38" fill="white"/>
</clipPath>
</defs>
</svg>
