<svg width="38" height="39" viewBox="0 0 38 39" fill="none" xmlns="http://www.w3.org/2000/svg">
<path d="M18.8166 0.629623C13.7067 0.629623 13.0655 0.651967 11.0585 0.743298C9.05551 0.835021 7.68828 1.15213 6.49196 1.61741C5.25448 2.09798 4.20476 2.74082 3.15896 3.78702C2.11238 4.83282 1.46953 5.88254 0.987396 7.11963C0.52094 8.31634 0.203437 9.68396 0.113282 11.6862C0.0235186 13.6931 0 14.3348 0 19.4446C0 24.5545 0.0227352 25.1938 0.113674 27.2007C0.20579 29.2037 0.522901 30.571 0.987788 31.7673C1.46875 33.0048 2.11159 34.0545 3.15779 35.1003C4.20319 36.1469 5.25292 36.7913 6.48961 37.2719C7.68672 37.7371 9.05433 38.0542 11.057 38.146C13.0639 38.2373 13.7048 38.2596 18.8142 38.2596C23.9245 38.2596 24.5638 38.2373 26.5707 38.146C28.5737 38.0542 29.9425 37.7371 31.1396 37.2719C32.3767 36.7913 33.4249 36.1469 34.4703 35.1003C35.5169 34.0545 36.1597 33.0048 36.6418 31.7677C37.1044 30.571 37.4219 29.2034 37.516 27.2011C37.6061 25.1942 37.6296 24.5545 37.6296 19.4446C37.6296 14.3348 37.6061 13.6935 37.516 11.6866C37.4219 9.68356 37.1044 8.31634 36.6418 7.12002C36.1597 5.88254 35.5169 4.83282 34.4703 3.78702C33.4237 2.74043 32.3771 2.09759 31.1385 1.61741C29.939 1.15213 28.571 0.835021 26.568 0.743298C24.561 0.651967 23.9221 0.629623 18.8107 0.629623H18.8166ZM17.1287 4.02024C17.6297 4.01946 18.1886 4.02024 18.8166 4.02024C23.8402 4.02024 24.4356 4.03828 26.4194 4.12843C28.2539 4.21232 29.2495 4.51884 29.9127 4.77637C30.7908 5.1174 31.4168 5.52505 32.0749 6.18358C32.7334 6.8421 33.1411 7.46927 33.4829 8.3473C33.7404 9.00975 34.0473 10.0054 34.1308 11.8398C34.221 13.8233 34.2406 14.4191 34.2406 19.4403C34.2406 24.4616 34.221 25.0574 34.1308 27.0408C34.0469 28.8753 33.7404 29.8709 33.4829 30.5333C33.1419 31.4114 32.7334 32.0366 32.0749 32.6947C31.4164 33.3532 30.7912 33.7609 29.9127 34.1019C29.2503 34.3606 28.2539 34.6664 26.4194 34.7503C24.436 34.8404 23.8402 34.86 18.8166 34.86C13.7926 34.86 13.1972 34.8404 11.2137 34.7503C9.37928 34.6656 8.38366 34.3591 7.72003 34.1015C6.842 33.7605 6.21483 33.3528 5.55631 32.6943C4.89778 32.0358 4.49012 31.4102 4.14832 30.5318C3.89079 29.8693 3.58387 28.8737 3.50038 27.0392C3.41022 25.0558 3.39219 24.46 3.39219 19.4356C3.39219 14.4112 3.41022 13.8186 3.50038 11.8351C3.58426 10.0007 3.89079 9.00505 4.14832 8.34182C4.48934 7.46378 4.89778 6.83662 5.55631 6.17809C6.21483 5.51957 6.842 5.11191 7.72003 4.7701C8.38326 4.51139 9.37928 4.20565 11.2137 4.12138C12.9494 4.04298 13.6221 4.01946 17.1287 4.01554V4.02024ZM28.8599 7.14432C27.6134 7.14432 26.6021 8.15445 26.6021 9.40134C26.6021 10.6478 27.6134 11.6591 28.8599 11.6591C30.1064 11.6591 31.1177 10.6478 31.1177 9.40134C31.1177 8.15484 30.1064 7.14354 28.8599 7.14354V7.14432ZM18.8166 9.78234C13.4806 9.78234 9.15429 14.1086 9.15429 19.4446C9.15429 24.7806 13.4806 29.105 18.8166 29.105C24.1526 29.105 28.4773 24.7806 28.4773 19.4446C28.4773 14.1086 24.1522 9.78234 18.8162 9.78234H18.8166ZM18.8166 13.173C22.2801 13.173 25.0882 15.9807 25.0882 19.4446C25.0882 22.9082 22.2801 25.7163 18.8166 25.7163C15.3527 25.7163 12.5449 22.9082 12.5449 19.4446C12.5449 15.9807 15.3527 13.173 18.8166 13.173V13.173Z" fill="#E0E0E0"/>
</svg>
