<svg width="38" height="39" viewBox="0 0 38 39" fill="none" xmlns="http://www.w3.org/2000/svg">
<path d="M0.370605 3.32517C0.370605 1.83686 1.60771 0.629623 3.13383 0.629623H35.237C36.7631 0.629623 38.0002 1.83686 38.0002 3.32518V35.5637C38.0002 37.0525 36.7631 38.2593 35.237 38.2593L3.13383 38.2592C1.60771 38.2592 0.370605 37.0525 0.370605 35.5637V3.32517ZM11.9967 32.1295V15.1376H6.34892V32.1295H11.9967ZM9.17278 12.8177C11.1423 12.8177 12.3681 11.5129 12.3681 9.88229C12.3314 8.21498 11.1423 6.94639 9.21015 6.94639C7.27821 6.94639 6.01505 8.21498 6.01505 9.88229C6.01505 11.5129 7.24064 12.8177 9.13597 12.8177H9.17278ZM20.7174 32.1295V22.6405C20.7174 22.1327 20.7541 21.6254 20.9032 21.2623C21.3115 20.2477 22.2408 19.1968 23.801 19.1968C25.8447 19.1968 26.6622 20.755 26.6622 23.0393V32.1295H32.3095V22.3866C32.3095 17.1675 29.5232 14.7389 25.8074 14.7389C22.8114 14.7389 21.4681 16.3855 20.7176 17.5434V17.6019H20.6799C20.6923 17.5825 20.7048 17.563 20.7176 17.5434V15.1376H15.0698C15.1439 16.732 15.0698 32.1295 15.0698 32.1295H20.7174Z" fill="#E0E0E0"/>
</svg>
