<svg width="37" height="38" viewBox="0 0 37 38" fill="none" xmlns="http://www.w3.org/2000/svg">
<g clip-path="url(#clip0_579_614)">
<path d="M0 19C0 21.3241 0.407072 23.5503 1.15069 25.6086L18.5 27.2608L35.8493 25.6086C36.5929 23.5503 37 21.3241 37 19C37 16.6759 36.5929 14.4496 35.8493 12.3913L18.5 10.7391L1.15069 12.3913C0.407072 14.4496 0 16.6759 0 19H0Z" fill="#FFDA44"/>
<path d="M35.8493 12.3913C33.2353 5.1562 26.4543 0 18.5 0C10.5456 0 3.76456 5.1562 1.15063 12.3913H35.8493Z" fill="#D80027"/>
<path d="M1.15063 25.6086C3.76456 32.8438 10.5456 38 18.5 38C26.4543 38 33.2353 32.8438 35.8493 25.6086H1.15063Z" fill="#D80027"/>
</g>
<defs>
<clipPath id="clip0_579_614">
<rect width="37" height="38" fill="white"/>
</clipPath>
</defs>
</svg>
