<svg width="38" height="39" viewBox="0 0 38 39" fill="none" xmlns="http://www.w3.org/2000/svg">
<path d="M19.1801 5.33026C19.1935 5.33029 19.2079 5.33032 19.2234 5.33036L19.3899 5.33088C21.3226 5.33798 31.1183 5.40898 33.7595 6.11903C35.3785 6.55329 36.6535 7.83306 37.0862 9.45756C37.3244 10.3501 37.4904 11.5364 37.6062 12.7564L37.6286 13.0008C37.6468 13.2047 37.6637 13.409 37.6792 13.6126L37.6973 13.8565C37.8519 16.0064 37.8699 18.0181 37.8721 18.4583L37.8723 18.5177C37.8723 18.5225 37.8723 18.5305 37.8723 18.5305V18.5638C37.8723 18.5638 37.8723 18.5718 37.8723 18.5766L37.8721 18.636C37.8699 19.0928 37.8505 21.2421 37.6792 23.4818L37.6599 23.7264L37.6394 23.9713C37.5229 25.3179 37.3482 26.6551 37.0862 27.6367C36.6535 29.2612 35.3785 30.5413 33.7595 30.9753C31.0303 31.7093 20.6616 31.7606 19.2234 31.7642L19.1126 31.7645C19.1035 31.7645 19.0955 31.7645 19.0887 31.7645L19.0435 31.7645C19.0435 31.7645 19.0331 31.7645 19.0262 31.7645L18.8915 31.7642C18.1647 31.7624 15.157 31.7484 12.0073 31.6402L11.6046 31.6259C11.5374 31.6234 11.4702 31.6209 11.403 31.6183L10.9998 31.6024L10.5975 31.5854C7.98815 31.4708 5.50024 31.2831 4.35575 30.9753C2.73669 30.5413 1.46175 29.2612 1.02903 27.6367C0.766879 26.6551 0.592111 25.3179 0.475599 23.9713L0.45505 23.7264L0.435747 23.4818C0.270616 21.3236 0.246645 19.2492 0.243165 18.6925L0.24275 18.6128C0.24272 18.6056 0.242696 18.599 0.242676 18.593V18.5013C0.242696 18.4953 0.24272 18.4887 0.24275 18.4815L0.243165 18.4018C0.246317 17.8976 0.266275 16.1487 0.392679 14.22L0.40904 13.978C0.411862 13.9376 0.414731 13.8971 0.417649 13.8565L0.435747 13.6126C0.451325 13.409 0.46816 13.2047 0.486352 13.0008L0.508841 12.7564C0.624609 11.5364 0.790711 10.3501 1.02903 9.45756C1.46175 7.83306 2.73669 6.55329 4.35575 6.11903C5.50024 5.81134 7.98815 5.62365 10.5975 5.50916L10.9998 5.49212L11.403 5.4762C11.4702 5.47363 11.5374 5.47112 11.6046 5.46864L12.0073 5.45432C14.956 5.3531 17.7802 5.33435 18.725 5.33088L18.8915 5.33036C18.907 5.33032 18.9214 5.33029 18.9348 5.33026H19.1801ZM15.2946 12.8825V24.2118L25.0706 18.5475L15.2946 12.8825Z" fill="#E0E0E0"/>
</svg>
