<svg width="120" height="62" viewBox="0 0 120 62" fill="none" xmlns="http://www.w3.org/2000/svg">
<g clip-path="url(#clip0_315_390)">
<path d="M91.6814 27.0826C85.5137 27.0826 80.0152 22.6793 78.8522 16.396C77.5411 9.31211 82.2299 2.48035 89.3067 1.16664C90.0942 1.02067 90.8983 0.946579 91.6991 0.946579C97.9818 0.946579 103.373 5.44174 104.518 11.6343C105.83 18.716 101.141 25.5478 94.064 26.8626C93.2643 27.0108 92.4668 27.0826 91.6814 27.0826ZM89.6679 3.1173C83.6658 4.23086 79.6883 10.0254 80.8006 16.0344C81.9118 22.0423 87.6996 26.0266 93.7028 24.913C99.7049 23.7983 103.682 18.0039 102.57 11.997C101.599 6.74329 97.0274 2.93153 91.6991 2.93153C91.0198 2.93153 90.3361 2.99456 89.6679 3.11841V3.1173Z" fill="#004E73"/>
<path d="M71.1458 15.5102C67.4864 15.5102 64.2225 12.8972 63.5321 9.16835C62.7545 4.96513 65.538 0.911196 69.7364 0.131593C70.2058 0.0442328 70.683 0 71.1546 0C74.8813 0 78.0812 2.66724 78.7616 6.34188C79.5392 10.5451 76.7569 14.6001 72.5585 15.3797C72.0846 15.4682 71.6119 15.5102 71.1458 15.5102ZM70.0965 2.08115C66.9717 2.66171 64.9007 5.67838 65.4795 8.80675C66.0593 11.934 69.0725 14.0063 72.1973 13.4291C75.3221 12.8485 77.3931 9.83184 76.8132 6.70348C76.3062 3.96879 73.9259 1.98384 71.1546 1.98384C70.8034 1.98384 70.4477 2.01702 70.0976 2.08115H70.0965Z" fill="#004E73"/>
<path d="M78.8555 52.219V29.0709H90.3361C91.8758 29.0709 93.2433 29.3761 94.4406 29.9854C95.6379 30.5958 96.5735 31.4418 97.2461 32.5222C97.9199 33.6036 98.2568 34.8388 98.2568 36.23C98.2568 37.6211 97.8724 38.9061 97.1026 40.0185C96.3327 41.1321 95.3176 41.9769 94.0562 42.5553L99.3304 52.219H93.1538L88.5733 43.3581H84.3716V52.219H78.8555ZM84.3716 38.8629H89.8236C90.6785 38.8629 91.3678 38.6274 91.8924 38.1563C92.416 37.6852 92.6777 37.0759 92.6777 36.3262C92.6777 35.5764 92.416 34.9671 91.8924 34.496C91.3689 34.025 90.6785 33.7894 89.8236 33.7894H84.3716V38.8618V38.8629Z" fill="#004E73"/>
<path d="M107.141 52.219V33.9509H99.7969V29.0709H120V33.9509H112.657V52.219H107.141Z" fill="#004E73"/>
<path d="M68.0332 29.0709H61.7826L52.3022 52.219H58.1287L64.7935 34.799L71.3258 52.219H77.3809L68.0332 29.0709Z" fill="#004E73"/>
<path d="M0 52.219V29.0709H5.5161V52.219H0Z" fill="#004E73"/>
<path d="M17.5092 52.219C15.6922 52.219 13.8962 51.8873 12.1212 51.2238C10.3462 50.5603 8.76452 49.6403 7.375 48.4626L10.4534 44.4495C11.8219 45.5631 13.0833 46.3604 14.2375 46.8414C15.3918 47.3225 16.6211 47.5635 17.9256 47.5635C18.7805 47.5635 19.5073 47.4784 20.106 47.307C20.7047 47.1356 21.1641 46.8846 21.4845 46.5528C21.8048 46.2211 21.966 45.8307 21.966 45.3806C21.966 44.7603 21.7308 44.2781 21.2602 43.9353C20.7897 43.5936 19.9878 43.326 18.8556 43.1325L13.9172 42.2655C12.1002 41.9449 10.6997 41.2493 9.71553 40.1789C8.73249 39.1084 8.23986 37.7494 8.23986 36.1017C8.23986 34.6464 8.60878 33.3947 9.34661 32.3452C10.0845 31.2969 11.1426 30.4941 12.5211 29.9368C13.8995 29.3805 15.5409 29.1019 17.444 29.1019C19.1119 29.1019 20.7897 29.3861 22.4786 29.9522C24.1674 30.5195 25.632 31.3058 26.8724 32.3121L23.9542 36.3892C21.6457 34.6133 19.3472 33.7242 17.0597 33.7242C16.3108 33.7242 15.6646 33.8049 15.1201 33.9653C14.5744 34.1256 14.158 34.3501 13.8697 34.6398C13.5814 34.9284 13.4367 35.2768 13.4367 35.6837C13.4367 36.2399 13.6455 36.669 14.0619 36.9676C14.4794 37.2672 15.1576 37.5028 16.0987 37.6742L20.7488 38.4449C22.9082 38.7877 24.5496 39.5043 25.6718 40.5958C26.794 41.6872 27.3551 43.1004 27.3551 44.8333C27.3551 46.3538 26.9597 47.6642 26.1688 48.7667C25.378 49.8692 24.2447 50.7195 22.769 51.3189C21.2934 51.9182 19.5405 52.2179 17.5103 52.2179L17.5092 52.219Z" fill="#004E73"/>
<path d="M52.1588 36.1172C51.5491 34.7161 50.6997 33.4842 49.6095 32.4248C48.5193 31.3655 47.2469 30.5416 45.7933 29.9533C44.3397 29.365 42.7679 29.0709 41.0791 29.0709C40.1248 29.0709 39.2091 29.1682 38.3299 29.3562C37.6528 29.5011 36.9978 29.6979 36.3649 29.9533C34.9113 30.5427 33.6389 31.3655 32.5487 32.4248C31.4585 33.4842 30.6091 34.715 29.9994 36.1172C29.3897 37.5194 29.0859 39.0343 29.0859 40.6599C29.0859 42.2854 29.3908 43.8015 29.9994 45.2026C30.6091 46.6048 31.4585 47.8355 32.5487 48.8949C33.6389 49.9543 34.9113 50.7792 36.3649 51.3675C36.9967 51.623 37.6528 51.8198 38.3299 51.9647C39.2091 52.1527 40.1248 52.25 41.0791 52.25C42.7679 52.25 44.3386 51.9558 45.7933 51.3675C47.2469 50.7792 48.5193 49.9554 49.6095 48.8949C50.6997 47.8355 51.5491 46.6048 52.1588 45.2026C52.7674 43.8004 53.0722 42.2865 53.0722 40.6599C53.0722 39.0332 52.7674 37.5194 52.1588 36.1172ZM46.9155 43.2453C46.5952 44.0481 46.1512 44.7381 45.5845 45.3165C45.0179 45.8948 44.3496 46.3493 43.5798 46.6811C42.8099 47.0128 41.976 47.1787 41.078 47.1787C40.7831 47.1787 40.4981 47.1544 40.2175 47.119C39.6421 47.046 39.0942 46.9044 38.5762 46.6811C37.8063 46.3493 37.1381 45.8948 36.5714 45.3165C36.0048 44.7381 35.5608 44.0481 35.2405 43.2453C34.9201 42.4425 34.7589 41.581 34.7589 40.661C34.7589 39.7409 34.919 38.8519 35.2405 38.0601C35.5608 37.2683 36.0048 36.5827 36.5714 36.0055C37.1381 35.4271 37.8063 34.9738 38.5762 34.6409C39.0931 34.4186 39.6421 34.2771 40.2175 34.2041C40.4981 34.1687 40.7831 34.1444 41.078 34.1444C41.976 34.1444 42.8099 34.3103 43.5798 34.642C44.3496 34.9738 45.0179 35.4282 45.5845 36.0066C46.1512 36.5849 46.5952 37.2694 46.9155 38.0612C47.2358 38.853 47.396 39.7199 47.396 40.6621C47.396 41.6043 47.2358 42.4436 46.9155 43.2464V43.2453Z" fill="#004E73"/>
<path d="M73.6423 57.7725C71.8761 58.6372 69.9862 59.2742 67.9992 59.6424C62.2423 60.7106 56.4136 59.4699 51.5878 56.1491C49.5522 54.748 47.8015 53.0451 46.3733 51.1154C46.1833 51.2039 45.99 51.289 45.7934 51.3687C45.3527 51.5467 44.8998 51.6949 44.437 51.8198C46.053 54.1221 48.0798 56.1436 50.4656 57.7846C54.4961 60.558 59.1672 62.0011 63.9543 62.0011C65.4167 62.0011 66.8913 61.8662 68.3604 61.5931C71.7204 60.9705 74.8396 59.6612 77.5701 57.7725H73.6423Z" fill="#004E73"/>
<path d="M60.6427 14.3723C60.3103 14.4188 59.9778 14.4719 59.6476 14.5338C53.3715 15.6982 47.9228 19.2402 44.3054 24.5083C43.308 25.9613 42.4895 27.4984 41.8423 29.093C42.5404 29.1306 43.2163 29.2224 43.8724 29.365C44.4335 28.0701 45.1228 26.8206 45.939 25.6318C49.256 20.8005 54.253 17.5516 60.0087 16.4845C60.2186 16.4458 60.4307 16.4126 60.6416 16.3794V14.3723H60.6427Z" fill="#004E73"/>
</g>
<defs>
<clipPath id="clip0_315_390">
<rect width="120" height="62" fill="white"/>
</clipPath>
</defs>
</svg>
