<svg width="303" height="303" viewBox="0 0 303 303" fill="none" xmlns="http://www.w3.org/2000/svg">
<circle cx="151" cy="151" r="114" fill="#D9D9D9"/>
<path d="M227.002 227.002C268.792 185.212 268.792 117.457 227.002 75.6675C185.212 33.8775 117.457 33.8775 75.6675 75.6675C33.8775 117.457 33.8775 185.212 75.6675 227.002C117.457 268.792 185.212 268.792 227.002 227.002Z" stroke="#A5A483" stroke-width="12" stroke-miterlimit="10"/>
<path d="M151 1C68.16 1 1 68.16 1 151C1 233.84 68.16 301 151 301C233.84 301 301 233.84 301 151C301 68.16 233.84 1 151 1ZM151 258.01C91.9 258.01 43.99 210.1 43.99 151C43.99 91.9 91.9 43.99 151 43.99C210.1 43.99 258.01 91.9 258.01 151C258.01 210.1 210.1 258.01 151 258.01Z" fill="#004E73"/>
<path d="M109.703 242.625L100.413 241.085C98.5329 240.745 97.1829 240.275 96.3429 239.675C95.5129 239.075 95.0929 238.225 95.0929 237.115C95.0929 236.305 95.3829 235.605 95.9529 235.035C96.5329 234.455 97.3629 234.015 98.4529 233.685C99.5429 233.365 100.833 233.205 102.333 233.205C106.903 233.205 111.493 234.975 116.103 238.525L121.933 230.395C119.453 228.385 116.533 226.815 113.163 225.685C109.793 224.555 106.433 223.985 103.103 223.985C99.3029 223.985 96.0229 224.535 93.2729 225.655C90.5129 226.765 88.4029 228.365 86.9329 230.455C85.4629 232.545 84.7229 235.045 84.7229 237.945C84.7229 241.235 85.7029 243.945 87.6729 246.075C89.6329 248.215 92.4329 249.595 96.0629 250.235L105.923 251.965C108.183 252.345 109.783 252.885 110.723 253.565C111.663 254.245 112.133 255.205 112.133 256.445C112.133 257.345 111.813 258.125 111.173 258.785C110.533 259.445 109.613 259.945 108.423 260.285C107.223 260.625 105.773 260.795 104.063 260.795C101.463 260.795 99.0029 260.315 96.6929 259.355C94.3829 258.395 91.8629 256.805 89.1329 254.585L82.9829 262.595C85.7629 264.945 88.9229 266.775 92.4629 268.105C96.0029 269.425 99.5929 270.095 103.223 270.095C107.283 270.095 110.783 269.495 113.723 268.305C116.673 267.105 118.933 265.415 120.513 263.215C122.093 261.015 122.883 258.405 122.883 255.365C122.883 251.905 121.763 249.085 119.523 246.915C117.283 244.735 114.003 243.305 109.693 242.625" fill="#004E73"/>
<path d="M109.703 242.625L100.413 241.085C98.5329 240.745 97.1829 240.275 96.3429 239.675C95.5129 239.075 95.0929 238.225 95.0929 237.115C95.0929 236.305 95.3829 235.605 95.9529 235.035C96.5329 234.455 97.3629 234.015 98.4529 233.685C99.5429 233.365 100.833 233.205 102.333 233.205C106.903 233.205 111.493 234.975 116.103 238.525L121.933 230.395C119.453 228.385 116.533 226.815 113.163 225.685C109.793 224.555 106.433 223.985 103.103 223.985C99.3029 223.985 96.0229 224.535 93.2729 225.655C90.5129 226.765 88.4029 228.365 86.9329 230.455C85.4629 232.545 84.7229 235.045 84.7229 237.945C84.7229 241.235 85.7029 243.945 87.6729 246.075C89.6329 248.215 92.4329 249.595 96.0629 250.235L105.923 251.965C108.183 252.345 109.783 252.885 110.723 253.565C111.663 254.245 112.133 255.205 112.133 256.445C112.133 257.345 111.813 258.125 111.173 258.785C110.533 259.445 109.613 259.945 108.423 260.285C107.223 260.625 105.773 260.795 104.063 260.795C101.463 260.795 99.0029 260.315 96.6929 259.355C94.3829 258.395 91.8629 256.805 89.1329 254.585L82.9829 262.595C85.7629 264.945 88.9229 266.775 92.4629 268.105C96.0029 269.425 99.5929 270.095 103.223 270.095C107.283 270.095 110.783 269.495 113.723 268.305C116.673 267.105 118.933 265.415 120.513 263.215C122.093 261.015 122.883 258.405 122.883 255.365C122.883 251.905 121.763 249.085 119.523 246.915C117.283 244.735 114.003 243.305 109.693 242.625H109.703Z" stroke="#004E73" stroke-width="8" stroke-linecap="round" stroke-linejoin="round"/>
<path d="M145.253 253.135H157.363C156.933 254.505 156.213 255.715 155.183 256.785C154.153 257.855 152.933 258.685 151.503 259.285C150.073 259.885 148.483 260.185 146.733 260.185C144.983 260.185 143.203 259.855 141.643 259.195C140.083 258.535 138.713 257.615 137.543 256.445C136.373 255.275 135.463 253.885 134.823 252.285C134.183 250.685 133.863 248.945 133.863 247.065C133.863 245.185 134.173 243.455 134.793 241.875C135.413 240.295 136.283 238.925 137.423 237.775C138.553 236.625 139.873 235.715 141.393 235.055C142.903 234.395 144.563 234.065 146.353 234.065C148.613 234.065 150.693 234.535 152.593 235.475C154.493 236.415 156.173 237.825 157.623 239.705L165.373 232.725C163.233 229.995 160.483 227.845 157.113 226.285C153.743 224.725 150.153 223.945 146.353 223.945C143.023 223.945 139.903 224.535 137.003 225.705C134.103 226.885 131.573 228.525 129.413 230.635C127.253 232.755 125.573 235.205 124.353 238.005C123.133 240.805 122.523 243.825 122.523 247.065C122.523 250.305 123.133 253.335 124.353 256.125C125.573 258.925 127.273 261.375 129.473 263.495C131.673 265.605 134.223 267.255 137.123 268.425C140.023 269.595 143.163 270.185 146.543 270.185C149.923 270.185 152.863 269.605 155.643 268.455C158.423 267.305 160.823 265.665 162.843 263.555C164.873 261.445 166.453 258.965 167.583 256.125C168.713 253.285 169.283 250.185 169.283 246.805V243.605H145.263V253.145L145.253 253.135Z" fill="#004E73"/>
<path d="M145.253 253.135H157.363C156.933 254.505 156.213 255.715 155.183 256.785C154.153 257.855 152.933 258.685 151.503 259.285C150.073 259.885 148.483 260.185 146.733 260.185C144.983 260.185 143.203 259.855 141.643 259.195C140.083 258.535 138.713 257.615 137.543 256.445C136.373 255.275 135.463 253.885 134.823 252.285C134.183 250.685 133.863 248.945 133.863 247.065C133.863 245.185 134.173 243.455 134.793 241.875C135.413 240.295 136.283 238.925 137.423 237.775C138.553 236.625 139.873 235.715 141.393 235.055C142.903 234.395 144.563 234.065 146.353 234.065C148.613 234.065 150.693 234.535 152.593 235.475C154.493 236.415 156.173 237.825 157.623 239.705L165.373 232.725C163.233 229.995 160.483 227.845 157.113 226.285C153.743 224.725 150.153 223.945 146.353 223.945C143.023 223.945 139.903 224.535 137.003 225.705C134.103 226.885 131.573 228.525 129.413 230.635C127.253 232.755 125.573 235.205 124.353 238.005C123.133 240.805 122.523 243.825 122.523 247.065C122.523 250.305 123.133 253.335 124.353 256.125C125.573 258.925 127.273 261.375 129.473 263.495C131.673 265.605 134.223 267.255 137.123 268.425C140.023 269.595 143.163 270.185 146.543 270.185C149.923 270.185 152.863 269.605 155.643 268.455C158.423 267.305 160.823 265.665 162.843 263.555C164.873 261.445 166.453 258.965 167.583 256.125C168.713 253.285 169.283 250.185 169.283 246.805V243.605H145.263V253.145L145.253 253.135Z" stroke="#004E73" stroke-width="8" stroke-linecap="round" stroke-linejoin="round"/>
<path d="M217.563 247.045C217.563 243.805 216.953 240.775 215.733 237.985C214.513 235.185 212.813 232.735 210.643 230.615C208.463 228.505 205.923 226.855 203.023 225.685C200.113 224.515 196.983 223.925 193.603 223.925C190.223 223.925 187.093 224.515 184.183 225.685C181.283 226.865 178.743 228.505 176.563 230.615C174.383 232.735 172.683 235.185 171.473 237.985C170.253 240.785 169.643 243.805 169.643 247.045C169.643 250.285 170.253 253.315 171.473 256.105C172.693 258.905 174.393 261.355 176.563 263.475C178.743 265.585 181.283 267.235 184.183 268.405C187.083 269.575 190.223 270.165 193.603 270.165C195.313 270.165 196.943 270.005 198.503 269.685C200.063 269.365 201.563 268.925 203.023 268.375L205.973 272.085L215.323 268.625L210.973 263.115C213.023 261.025 214.633 258.605 215.803 255.845C216.983 253.085 217.563 250.155 217.563 247.035" fill="#004E73"/>
<path d="M217.563 247.045C217.563 243.805 216.953 240.775 215.733 237.985C214.513 235.185 212.813 232.735 210.643 230.615C208.463 228.505 205.923 226.855 203.023 225.685C200.113 224.515 196.983 223.925 193.603 223.925C190.223 223.925 187.093 224.515 184.183 225.685C181.283 226.865 178.743 228.505 176.563 230.615C174.383 232.735 172.683 235.185 171.473 237.985C170.253 240.785 169.643 243.805 169.643 247.045C169.643 250.285 170.253 253.315 171.473 256.105C172.693 258.905 174.393 261.355 176.563 263.475C178.743 265.585 181.283 267.235 184.183 268.405C187.083 269.575 190.223 270.165 193.603 270.165C195.313 270.165 196.943 270.005 198.503 269.685C200.063 269.365 201.563 268.925 203.023 268.375L205.973 272.085L215.323 268.625L210.973 263.115C213.023 261.025 214.633 258.605 215.803 255.845C216.983 253.085 217.563 250.155 217.563 247.035V247.045Z" stroke="#004E73" stroke-width="8" stroke-linecap="round" stroke-linejoin="round"/>
<path d="M193.003 138.405C184.803 138.405 177.493 132.555 175.953 124.215C174.213 114.805 180.443 105.735 189.853 103.995C190.903 103.805 191.973 103.705 193.033 103.705C201.383 103.705 208.553 109.675 210.073 117.895C211.813 127.295 205.583 136.365 196.173 138.115C195.113 138.315 194.053 138.405 193.003 138.405ZM190.323 106.575C182.343 108.055 177.053 115.745 178.533 123.725C180.013 131.705 187.703 136.995 195.683 135.515C203.663 134.035 208.953 126.345 207.473 118.365C206.183 111.385 200.103 106.325 193.023 106.325C192.123 106.325 191.213 106.405 190.323 106.575Z" fill="#004E73"/>
<path d="M165.703 123.035C160.843 123.035 156.503 119.565 155.583 114.615C154.553 109.035 158.253 103.655 163.833 102.615C164.453 102.495 165.093 102.445 165.723 102.445C170.673 102.445 174.933 105.985 175.833 110.865C176.873 116.445 173.173 121.835 167.583 122.865C166.953 122.985 166.323 123.035 165.703 123.035ZM164.303 105.205C160.153 105.975 157.393 109.985 158.163 114.135C158.933 118.285 162.943 121.035 167.093 120.275C171.243 119.505 174.003 115.495 173.233 111.345C172.563 107.715 169.393 105.075 165.713 105.075C165.243 105.075 164.773 105.115 164.303 105.205Z" fill="#004E73"/>
<path d="M175.953 171.775V141.035H191.213C193.263 141.035 195.073 141.445 196.673 142.255C198.263 143.065 199.503 144.185 200.403 145.625C201.303 147.065 201.743 148.705 201.743 150.545C201.743 152.385 201.233 154.095 200.203 155.575C199.183 157.055 197.833 158.175 196.153 158.945L203.163 171.775H194.953L188.863 160.005H183.283V171.775H175.953ZM183.283 154.045H190.533C191.673 154.045 192.583 153.735 193.283 153.105C193.983 152.485 194.333 151.675 194.333 150.675C194.333 149.675 193.983 148.875 193.283 148.245C192.583 147.625 191.673 147.305 190.533 147.305H183.283V154.045Z" fill="#004E73"/>
<path d="M213.553 171.775V147.525H203.783V141.045H230.643V147.525H220.883V171.775H213.553Z" fill="#004E73"/>
<path d="M161.563 141.045H153.253L140.653 171.775H148.393L157.253 148.645L165.943 171.775H173.993L161.563 141.045Z" fill="#004E73"/>
<path d="M78.453 141.045H71.123V171.785H78.453V141.045Z" fill="#004E73"/>
<path d="M94.3931 171.775C91.9731 171.775 89.5931 171.335 87.2331 170.455C84.8731 169.575 82.7731 168.355 80.9231 166.785L85.0131 161.455C86.8331 162.935 88.5131 163.995 90.0431 164.635C91.5831 165.275 93.2131 165.595 94.9431 165.595C96.0831 165.595 97.0431 165.485 97.8431 165.255C98.6431 165.025 99.2531 164.695 99.6731 164.255C100.103 163.815 100.313 163.295 100.313 162.695C100.313 161.875 100.003 161.235 99.3731 160.775C98.7431 160.325 97.6831 159.965 96.1731 159.705L89.6031 158.555C87.1831 158.125 85.3231 157.205 84.0231 155.785C82.7131 154.365 82.0631 152.565 82.0631 150.375C82.0631 148.445 82.5531 146.775 83.5331 145.385C84.5131 143.995 85.9231 142.925 87.7531 142.185C89.5831 141.445 91.7631 141.075 94.2931 141.075C96.5131 141.075 98.7431 141.455 100.983 142.205C103.223 142.955 105.173 144.005 106.823 145.335L102.943 150.745C99.8731 148.385 96.8231 147.205 93.7731 147.205C92.7831 147.205 91.9231 147.315 91.1931 147.525C90.4631 147.735 89.9131 148.035 89.5331 148.425C89.1531 148.805 88.9631 149.275 88.9631 149.815C88.9631 150.555 89.2431 151.125 89.7931 151.515C90.3431 151.915 91.2531 152.225 92.5031 152.455L98.6831 153.475C101.553 153.925 103.733 154.885 105.223 156.335C106.713 157.785 107.463 159.665 107.463 161.965C107.463 163.985 106.933 165.725 105.883 167.185C104.833 168.645 103.323 169.775 101.363 170.575C99.4031 171.375 97.0731 171.765 94.3731 171.765" fill="#004E73"/>
<path d="M140.463 150.395C139.653 148.535 138.523 146.895 137.073 145.495C135.623 144.085 133.933 142.995 132.003 142.215C130.073 141.435 127.983 141.045 125.733 141.045C124.463 141.045 123.243 141.175 122.073 141.425C121.173 141.615 120.303 141.875 119.463 142.215C117.533 142.995 115.843 144.095 114.393 145.495C112.943 146.905 111.813 148.535 111.003 150.395C110.193 152.255 109.793 154.265 109.793 156.425C109.793 158.585 110.193 160.595 111.003 162.455C111.813 164.315 112.943 165.945 114.393 167.355C115.843 168.765 117.533 169.855 119.463 170.635C120.303 170.975 121.173 171.235 122.073 171.425C123.243 171.675 124.463 171.805 125.733 171.805C127.973 171.805 130.063 171.415 132.003 170.635C133.933 169.855 135.623 168.755 137.073 167.355C138.523 165.945 139.653 164.315 140.463 162.455C141.273 160.595 141.673 158.585 141.673 156.425C141.673 154.265 141.263 152.255 140.463 150.395ZM133.493 159.865C133.063 160.935 132.473 161.845 131.723 162.615C130.973 163.385 130.083 163.985 129.053 164.425C128.033 164.865 126.923 165.085 125.733 165.085C125.343 165.085 124.963 165.055 124.593 165.005C123.823 164.905 123.103 164.725 122.413 164.425C121.393 163.985 120.503 163.385 119.753 162.615C119.003 161.845 118.413 160.935 117.983 159.865C117.553 158.795 117.343 157.655 117.343 156.435C117.343 155.215 117.553 154.035 117.983 152.985C118.413 151.935 119.003 151.025 119.753 150.255C120.503 149.485 121.393 148.885 122.413 148.445C123.103 148.145 123.833 147.965 124.593 147.865C124.963 147.815 125.343 147.785 125.733 147.785C126.923 147.785 128.033 148.005 129.053 148.445C130.073 148.885 130.963 149.485 131.723 150.255C132.473 151.025 133.063 151.935 133.493 152.985C133.923 154.035 134.133 155.185 134.133 156.435C134.133 157.685 133.923 158.805 133.493 159.865Z" fill="#004E73"/>
<path d="M169.023 179.155C166.673 180.305 164.163 181.145 161.523 181.635C153.873 183.055 146.123 181.405 139.703 176.995C136.993 175.135 134.673 172.875 132.773 170.315C132.523 170.435 132.263 170.545 132.003 170.655C131.413 170.895 130.813 171.085 130.203 171.255C132.353 174.315 135.043 176.995 138.213 179.175C143.573 182.855 149.783 184.775 156.143 184.775C158.083 184.775 160.043 184.595 162.003 184.235C166.473 183.405 170.613 181.665 174.243 179.165H169.023V179.155Z" fill="#004E73"/>
<path d="M151.743 121.525C151.303 121.585 150.863 121.655 150.423 121.735C142.083 123.285 134.833 127.985 130.033 134.975C128.703 136.905 127.623 138.945 126.763 141.065C127.693 141.115 128.593 141.235 129.463 141.425C130.213 139.705 131.123 138.045 132.213 136.465C136.623 130.055 143.263 125.735 150.923 124.315C151.203 124.265 151.483 124.215 151.763 124.175V121.505L151.743 121.525Z" fill="#004E73"/>
<path d="M36.553 178.525C36.883 180.015 36.933 181.555 36.703 183.135C36.473 184.715 36.003 186.175 35.283 187.535L31.433 185.725C32.103 184.405 32.533 183.225 32.723 182.185C32.913 181.145 32.893 180.095 32.653 179.025C32.503 178.325 32.303 177.735 32.053 177.275C31.803 176.815 31.513 176.475 31.183 176.275C30.853 176.075 30.503 176.005 30.133 176.085C29.623 176.195 29.273 176.475 29.073 176.925C28.873 177.375 28.803 178.085 28.843 179.045L29.013 183.265C29.073 184.815 28.753 186.095 28.053 187.095C27.353 188.095 26.323 188.745 24.973 189.035C23.783 189.295 22.683 189.215 21.693 188.795C20.703 188.375 19.853 187.645 19.143 186.615C18.443 185.585 17.913 184.285 17.573 182.715C17.273 181.345 17.203 179.915 17.373 178.425C17.533 176.935 17.923 175.585 18.523 174.385L22.393 176.055C21.353 178.275 21.033 180.325 21.443 182.205C21.573 182.825 21.763 183.335 21.993 183.755C22.223 184.175 22.483 184.475 22.773 184.665C23.063 184.855 23.373 184.905 23.703 184.835C24.163 184.735 24.473 184.485 24.643 184.095C24.813 183.695 24.883 183.095 24.853 182.295L24.653 178.335C24.543 176.495 24.843 175.025 25.533 173.905C26.233 172.785 27.283 172.075 28.713 171.765C29.963 171.495 31.103 171.585 32.153 172.035C33.203 172.485 34.103 173.265 34.863 174.375C35.623 175.485 36.183 176.865 36.543 178.535L36.553 178.525Z" fill="white"/>
<path d="M34.5529 168.805L15.7829 170.905L15.2629 166.295L34.0329 164.195L34.5529 168.805Z" fill="white"/>
<path d="M33.8429 154.585C33.8529 156.115 33.5929 157.625 33.0529 159.125C32.5129 160.625 31.7529 161.965 30.7729 163.145L27.3729 160.585C28.2929 159.425 28.9529 158.355 29.3529 157.385C29.7529 156.415 29.9429 155.375 29.9329 154.275C29.9329 153.555 29.8529 152.945 29.7029 152.445C29.5529 151.945 29.3429 151.555 29.0529 151.295C28.7729 151.025 28.4429 150.895 28.0629 150.905C27.5429 150.905 27.1429 151.115 26.8529 151.515C26.5629 151.915 26.3529 152.595 26.1929 153.545L25.5029 157.705C25.2529 159.235 24.6729 160.425 23.7829 161.255C22.8929 162.095 21.7529 162.515 20.3629 162.535C19.1429 162.545 18.0829 162.245 17.1929 161.635C16.3029 161.025 15.6229 160.135 15.1429 158.985C14.6629 157.825 14.4129 156.455 14.4029 154.855C14.3929 153.455 14.6129 152.035 15.0729 150.615C15.5329 149.185 16.1829 147.945 17.0229 146.895L20.4729 149.315C19.0029 151.275 18.2729 153.215 18.2929 155.135C18.2929 155.765 18.3729 156.305 18.5129 156.765C18.6529 157.225 18.8429 157.575 19.0929 157.815C19.3429 158.055 19.6329 158.175 19.9729 158.175C20.4429 158.175 20.8029 157.995 21.0429 157.635C21.2929 157.285 21.4829 156.705 21.6229 155.915L22.2329 151.995C22.5029 150.175 23.0929 148.785 24.0029 147.835C24.9129 146.885 26.0929 146.395 27.5529 146.385C28.8329 146.375 29.9329 146.695 30.8729 147.355C31.8029 148.015 32.5329 148.955 33.0429 150.195C33.5529 151.435 33.8229 152.905 33.8429 154.615V154.585Z" fill="white"/>
<path d="M34.2629 140.145L19.6029 138.225L18.8029 144.355L14.7329 143.825L16.9329 126.965L21.0029 127.495L20.2029 133.625L34.8629 135.545L34.2629 140.145Z" fill="white"/>
<path d="M36.033 128.035L17.863 122.875L21.933 108.545L25.803 109.645L23.003 119.515L26.273 120.445L28.123 113.925L31.863 114.985L30.013 121.505L33.443 122.475L36.273 112.505L40.143 113.605L36.043 128.035H36.033Z" fill="white"/>
<path d="M40.613 111.675L23.593 103.475L26.133 98.205L36.183 97.865L30.183 89.795L32.723 84.515L49.743 92.715L47.843 96.655L36.243 91.065L43.933 101.655L30.813 102.225L42.463 107.835L40.613 111.675Z" fill="white"/>
<path d="M50.063 92.2149L39.373 74.8149L42.513 70.5249L62.273 75.4949L59.313 79.5449L54.613 78.2549L50.263 84.2049L52.913 88.3149L50.063 92.2149ZM48.113 80.8949L50.823 77.1849L44.603 75.4449L48.113 80.8849V80.8949Z" fill="white"/>
<path d="M73.4631 65.2949C72.4031 66.2449 71.2531 66.9349 70.0031 67.3749C68.7631 67.8249 67.4931 68.0149 66.2131 67.9649C64.9231 67.9149 63.7031 67.6249 62.5331 67.0849C61.3631 66.5449 60.3331 65.7649 59.4231 64.7449C58.5131 63.7249 57.8631 62.6049 57.4631 61.3849C57.0631 60.1649 56.9031 58.9149 56.9931 57.6449C57.0831 56.3749 57.4131 55.1549 58.0031 53.9649C58.5831 52.7849 59.4031 51.7249 60.4531 50.7949C61.6531 49.7349 62.9931 48.9749 64.4931 48.5149C65.9931 48.0649 67.4631 47.9649 68.8931 48.2249L68.4131 52.5949C67.4331 52.4149 66.5131 52.4349 65.6431 52.6749C64.7831 52.9149 63.9931 53.3449 63.2831 53.9849C62.7131 54.4849 62.2931 55.0549 61.9931 55.6849C61.7031 56.3149 61.5431 56.9749 61.5031 57.6549C61.4731 58.3349 61.5731 59.0149 61.8231 59.6849C62.0731 60.3549 62.4531 60.9849 62.9831 61.5749C63.5131 62.1649 64.0931 62.6249 64.7431 62.9449C65.3931 63.2649 66.0631 63.4549 66.7631 63.4949C67.4631 63.5349 68.1431 63.4449 68.8231 63.2149C69.5031 62.9849 70.1231 62.6149 70.7031 62.1049C71.2531 61.6149 71.6731 61.0749 71.9531 60.4849C72.2331 59.8949 72.3931 59.2949 72.4131 58.6649C72.4331 58.0449 72.3231 57.4549 72.0731 56.9049L68.2631 60.2949L65.5931 57.2949L73.1531 50.5649L74.0531 51.5749C74.9931 52.6349 75.6931 53.7749 76.1331 54.9849C76.5731 56.1949 76.7731 57.4149 76.7231 58.6549C76.6731 59.8849 76.3831 61.0749 75.8331 62.2149C75.2831 63.3549 74.4931 64.3849 73.4531 65.3049L73.4631 65.2949Z" fill="white"/>
<path d="M81.943 57.805L71.783 41.875L84.343 33.865L86.503 37.255L77.853 42.765L79.683 45.635L85.393 41.995L87.483 45.275L81.773 48.915L83.683 51.915L92.423 46.345L94.583 49.735L81.933 57.805H81.943Z" fill="white"/>
<path d="M102.913 46.1649C101.523 46.7949 100.033 47.1649 98.433 47.2649C96.833 47.3649 95.313 47.2149 93.833 46.7949L94.803 42.6549C96.233 43.0349 97.483 43.2049 98.533 43.1749C99.583 43.1449 100.613 42.9049 101.613 42.4549C102.263 42.1549 102.793 41.8449 103.193 41.5049C103.593 41.1649 103.863 40.8149 103.993 40.4549C104.123 40.0849 104.113 39.7349 103.953 39.3849C103.743 38.9049 103.393 38.6249 102.913 38.5249C102.433 38.4249 101.723 38.4949 100.793 38.7449L96.703 39.7949C95.203 40.1749 93.883 40.1249 92.763 39.6549C91.643 39.1749 90.793 38.3049 90.223 37.0449C89.723 35.9349 89.573 34.8449 89.773 33.7849C89.973 32.7249 90.513 31.7449 91.373 30.8349C92.243 29.9349 93.403 29.1549 94.863 28.4949C96.143 27.9149 97.523 27.5549 99.023 27.4049C100.513 27.2549 101.913 27.3549 103.213 27.6949L102.383 31.8249C100.003 31.2649 97.923 31.3749 96.173 32.1649C95.603 32.4249 95.133 32.7049 94.773 33.0249C94.413 33.3349 94.173 33.6549 94.043 33.9749C93.923 34.2949 93.933 34.6149 94.073 34.9249C94.263 35.3549 94.573 35.6049 94.993 35.6949C95.413 35.7749 96.023 35.7249 96.793 35.5349L100.623 34.5149C102.403 34.0349 103.903 34.0149 105.143 34.4649C106.383 34.9149 107.303 35.8049 107.903 37.1349C108.433 38.2949 108.573 39.4349 108.353 40.5549C108.133 41.6749 107.553 42.7149 106.633 43.6849C105.713 44.6549 104.463 45.4849 102.913 46.1949V46.1649Z" fill="white"/>
<path d="M116.293 40.765L112.183 26.555L106.243 28.275L105.103 24.335L121.433 19.605L122.573 23.545L116.633 25.265L120.743 39.475L116.283 40.765H116.293Z" fill="white"/>
<path d="M122.983 38.4449L127.753 18.5949L133.003 17.7849L143.433 35.2849L138.473 36.0549L136.073 31.8149L128.793 32.9349L127.753 37.7149L122.983 38.4549V38.4449ZM127.213 16.8049L124.543 16.6449C124.683 14.2549 125.593 12.9349 127.263 12.6749C127.763 12.5949 128.263 12.6249 128.783 12.7649C129.293 12.9049 129.783 13.0449 130.243 13.1949C130.703 13.3449 131.093 13.3949 131.413 13.3449C131.713 13.2949 131.933 13.1649 132.073 12.9249C132.213 12.6949 132.303 12.3149 132.343 11.7749L134.963 11.9449C134.913 13.1549 134.663 14.0849 134.203 14.7349C133.753 15.3849 133.103 15.7749 132.273 15.9049C131.793 15.9749 131.293 15.9449 130.773 15.8049C130.253 15.6649 129.763 15.5249 129.303 15.3749C128.843 15.2249 128.443 15.1849 128.103 15.2349C127.823 15.2749 127.603 15.4149 127.473 15.6549C127.333 15.8949 127.253 16.2749 127.223 16.7849L127.213 16.8049ZM129.623 29.0649L134.153 28.3649L130.993 22.7349L129.623 29.0649Z" fill="white"/>
<path d="M152.423 35.7849C151.003 35.7649 149.683 35.4949 148.473 34.9749C147.253 34.4649 146.203 33.7549 145.293 32.8449C144.393 31.9349 143.693 30.8949 143.203 29.7049C142.713 28.5149 142.473 27.2449 142.493 25.8749C142.513 24.5049 142.793 23.2449 143.323 22.0749C143.853 20.9049 144.583 19.8849 145.523 19.0049C146.453 18.1249 147.533 17.4549 148.773 16.9749C150.003 16.5049 151.333 16.2749 152.753 16.2949C154.173 16.3149 155.493 16.5849 156.713 17.1049C157.923 17.6149 158.983 18.3249 159.893 19.2349C160.793 20.1449 161.493 21.1849 161.983 22.3749C162.473 23.5649 162.713 24.8349 162.693 26.2049C162.673 27.5749 162.393 28.8449 161.863 30.0149C161.333 31.1849 160.603 32.2049 159.663 33.0849C158.733 33.9649 157.653 34.6349 156.423 35.1149C155.193 35.5849 153.863 35.8149 152.443 35.7949L152.423 35.7849ZM152.493 31.5249C153.253 31.5349 153.953 31.4049 154.603 31.1449C155.253 30.8749 155.823 30.5049 156.313 30.0249C156.793 29.5449 157.183 28.9749 157.463 28.3049C157.743 27.6349 157.893 26.9149 157.903 26.1349C157.913 25.3449 157.793 24.6149 157.533 23.9449C157.273 23.2749 156.913 22.6949 156.443 22.1949C155.973 21.7049 155.423 21.3149 154.773 21.0249C154.133 20.7349 153.433 20.5849 152.673 20.5749C151.913 20.5649 151.213 20.6849 150.563 20.9549C149.913 21.2249 149.343 21.5949 148.853 22.0749C148.373 22.5549 147.983 23.1249 147.703 23.7849C147.423 24.4449 147.273 25.1749 147.263 25.9649C147.253 26.7349 147.373 27.4649 147.633 28.1449C147.893 28.8249 148.253 29.4149 148.723 29.9049C149.193 30.3949 149.743 30.7849 150.393 31.0749C151.033 31.3649 151.733 31.5149 152.493 31.5249Z" fill="white"/>
<path d="M169.273 36.535L173.463 18.115L180.933 19.815C182.303 20.125 183.523 20.655 184.583 21.395C185.653 22.135 186.533 23.025 187.223 24.075C187.913 25.115 188.383 26.255 188.633 27.495C188.873 28.735 188.853 29.995 188.553 31.295C188.263 32.575 187.743 33.715 186.993 34.705C186.243 35.695 185.333 36.505 184.253 37.145C183.173 37.775 182.003 38.195 180.713 38.405C179.433 38.615 178.103 38.555 176.733 38.245L169.263 36.545L169.273 36.535ZM174.713 33.565L177.553 34.215C178.273 34.375 178.973 34.395 179.653 34.275C180.333 34.155 180.973 33.905 181.553 33.545C182.133 33.175 182.633 32.715 183.033 32.155C183.433 31.595 183.723 30.945 183.883 30.235C184.053 29.495 184.073 28.785 183.953 28.085C183.833 27.385 183.593 26.745 183.223 26.165C182.863 25.585 182.393 25.085 181.833 24.675C181.273 24.265 180.633 23.975 179.913 23.815L177.073 23.165L174.703 33.585L174.713 33.565Z" fill="white"/>
<path d="M185.493 40.035L199.703 25.375L204.643 27.355L204.713 47.735L200.053 45.865L200.143 40.985L193.303 38.245L189.983 41.825L185.503 40.025L185.493 40.035ZM195.983 35.345L200.243 37.055L200.383 30.605L195.983 35.355V35.345Z" fill="white"/>
<path d="M221.173 59.6549L221.023 57.6649C220.383 57.5149 219.753 57.3149 219.143 57.0549C218.523 56.7949 217.913 56.4649 217.323 56.0649C216.143 55.2649 215.193 54.3149 214.463 53.2249C213.733 52.1249 213.233 50.9549 212.973 49.6949C212.713 48.4449 212.703 47.1849 212.943 45.9249C213.183 44.6649 213.683 43.4649 214.453 42.3349C215.223 41.2049 216.153 40.2949 217.233 39.6149C218.323 38.9349 219.493 38.4749 220.753 38.2549C222.013 38.0349 223.283 38.0649 224.573 38.3449C225.863 38.6249 227.093 39.1649 228.273 39.9649C229.443 40.7649 230.403 41.7149 231.133 42.8049C231.863 43.9049 232.363 45.0749 232.623 46.3349C232.883 47.5849 232.893 48.8449 232.653 50.1049C232.413 51.3649 231.913 52.5649 231.143 53.6949C230.403 54.7849 229.503 55.6649 228.443 56.3449C227.383 57.0249 226.243 57.4849 225.033 57.7349L225.243 60.6849L221.163 59.6749L221.173 59.6549ZM219.723 52.5249C219.883 52.6349 220.053 52.7349 220.213 52.8249C220.383 52.9149 220.543 52.9949 220.713 53.0649L220.513 50.1849L224.593 51.1949L224.713 53.0349C225.193 52.8449 225.643 52.5649 226.073 52.2149C226.493 51.8649 226.873 51.4449 227.193 50.9749C227.643 50.3249 227.933 49.6449 228.083 48.9349C228.233 48.2349 228.253 47.5449 228.133 46.8749C228.013 46.2049 227.763 45.5749 227.383 44.9749C227.003 44.3749 226.503 43.8749 225.883 43.4449C225.263 43.0149 224.603 42.7349 223.903 42.6049C223.213 42.4749 222.533 42.4749 221.863 42.6049C221.193 42.7349 220.563 43.0049 219.963 43.4049C219.363 43.8049 218.843 44.3249 218.403 44.9849C217.973 45.6249 217.673 46.2949 217.513 47.0049C217.353 47.7149 217.343 48.4049 217.463 49.0749C217.583 49.7449 217.833 50.3749 218.213 50.9749C218.593 51.5749 219.093 52.0749 219.723 52.5049V52.5249Z" fill="white"/>
<path d="M232.873 68.6449C231.613 67.4349 230.763 66.1349 230.323 64.7449C229.873 63.3549 229.843 61.9549 230.223 60.5449C230.603 59.1349 231.393 57.8149 232.593 56.5749L239.993 48.9049L243.333 52.1249L235.933 59.7949C235.343 60.4049 234.943 61.0549 234.743 61.7349C234.533 62.4249 234.523 63.0949 234.723 63.7649C234.923 64.4349 235.303 65.0349 235.873 65.5849C236.453 66.1449 237.073 66.5049 237.733 66.6649C238.393 66.8249 239.063 66.7849 239.733 66.5549C240.403 66.3249 241.043 65.8949 241.623 65.2849L249.023 57.6149L252.363 60.8349L244.963 68.5149C243.773 69.7449 242.483 70.5749 241.083 70.9949C239.683 71.4249 238.283 71.4449 236.863 71.0549C235.453 70.6649 234.113 69.8649 232.863 68.6549L232.873 68.6449Z" fill="white"/>
<path d="M239.093 74.045L258.833 68.835L262.043 73.075L251.583 90.555L248.553 86.555L251.153 82.425L246.713 76.545L242.013 77.895L239.103 74.045H239.093ZM250.493 75.435L253.263 79.095L256.723 73.645L250.503 75.435H250.493Z" fill="white"/>
<path d="M251.743 91.285L268.373 82.325L270.573 86.415L257.553 93.435L262.273 102.205L258.663 104.155L251.733 91.305L251.743 91.285Z" fill="white"/>
<path d="M259.343 106.185L276.803 98.975L278.573 103.265L261.113 110.475L259.343 106.185Z" fill="white"/>
<path d="M262.303 112.805L280.473 107.635L282.573 115.005C282.953 116.355 283.083 117.675 282.943 118.965C282.803 120.255 282.443 121.455 281.863 122.565C281.283 123.675 280.503 124.635 279.543 125.445C278.573 126.255 277.453 126.835 276.173 127.205C274.913 127.565 273.663 127.655 272.433 127.475C271.203 127.295 270.053 126.875 268.983 126.245C267.913 125.605 266.983 124.775 266.183 123.745C265.383 122.715 264.793 121.535 264.413 120.185L262.313 112.815L262.303 112.805ZM267.513 116.145L268.313 118.945C268.513 119.655 268.833 120.275 269.273 120.825C269.703 121.365 270.223 121.805 270.823 122.135C271.423 122.465 272.063 122.675 272.753 122.765C273.443 122.845 274.143 122.795 274.853 122.585C275.583 122.375 276.223 122.055 276.783 121.615C277.343 121.175 277.783 120.655 278.123 120.055C278.453 119.455 278.673 118.805 278.763 118.115C278.853 117.425 278.803 116.725 278.603 116.015L277.803 113.215L267.523 116.135L267.513 116.145Z" fill="white"/>
<path d="M267.013 128.745L286.693 134.175L287.333 139.455L269.493 149.295L268.893 144.315L273.213 142.055L272.333 134.745L267.593 133.545L267.013 128.755V128.745ZM276.173 135.685L276.723 140.235L282.453 137.265L276.173 135.685Z" fill="white"/>
<path d="M269.363 149.955L288.233 150.775L287.903 158.435C287.843 159.835 287.543 161.135 287.003 162.315C286.463 163.495 285.743 164.525 284.843 165.395C283.943 166.265 282.903 166.935 281.733 167.395C280.563 167.855 279.313 168.055 277.983 168.005C276.673 167.945 275.463 167.635 274.353 167.075C273.243 166.515 272.283 165.765 271.463 164.815C270.643 163.865 270.023 162.785 269.593 161.565C269.163 160.335 268.973 159.025 269.033 157.625L269.363 149.965V149.955ZM273.253 154.765L273.123 157.675C273.093 158.415 273.193 159.105 273.433 159.755C273.673 160.405 274.033 160.985 274.493 161.485C274.953 161.995 275.503 162.395 276.133 162.695C276.753 162.995 277.443 163.155 278.173 163.185C278.923 163.215 279.633 163.115 280.303 162.875C280.973 162.635 281.553 162.285 282.063 161.815C282.573 161.355 282.973 160.805 283.283 160.185C283.593 159.555 283.763 158.875 283.793 158.145L283.923 155.235L273.243 154.775L273.253 154.765Z" fill="white"/>
<path d="M268.243 169.355L286.763 173.065L283.833 187.675L279.893 186.885L281.903 176.835L278.573 176.165L277.243 182.805L273.433 182.045L274.763 175.405L271.273 174.705L269.233 184.865L265.293 184.075L268.243 169.365V169.355Z" fill="white"/>
<path d="M103.233 269.845C99.6029 269.845 96.0129 269.185 92.4729 267.855C88.9329 266.535 85.7729 264.695 82.9929 262.345L89.1429 254.335C91.8729 256.555 94.3929 258.145 96.7029 259.105C99.0129 260.065 101.463 260.545 104.073 260.545C105.783 260.545 107.233 260.375 108.433 260.035C109.633 259.695 110.543 259.195 111.183 258.525C111.823 257.865 112.143 257.085 112.143 256.185C112.143 254.945 111.673 253.985 110.733 253.305C109.793 252.625 108.193 252.085 105.933 251.705L96.0729 249.975C92.4429 249.335 89.6429 247.945 87.6829 245.815C85.7229 243.685 84.7329 240.965 84.7329 237.685C84.7329 234.785 85.4729 232.285 86.9429 230.195C88.4129 228.105 90.5329 226.505 93.2829 225.395C96.0329 224.285 99.3129 223.725 103.113 223.725C106.443 223.725 109.793 224.295 113.173 225.425C116.543 226.555 119.473 228.125 121.953 230.135L116.123 238.265C111.513 234.725 106.923 232.945 102.353 232.945C100.853 232.945 99.5629 233.105 98.4729 233.425C97.3829 233.745 96.5529 234.195 95.9729 234.775C95.3929 235.355 95.1029 236.045 95.1029 236.855C95.1029 237.965 95.5229 238.815 96.3529 239.415C97.1829 240.015 98.5429 240.485 100.423 240.825L109.713 242.365C114.023 243.045 117.303 244.475 119.543 246.655C121.783 248.835 122.903 251.655 122.903 255.115C122.903 258.145 122.113 260.765 120.533 262.965C118.953 265.165 116.693 266.865 113.743 268.055C110.793 269.255 107.293 269.845 103.243 269.845H103.233Z" fill="white"/>
<path d="M146.533 269.905C143.163 269.905 140.023 269.315 137.113 268.145C134.213 266.975 131.653 265.325 129.463 263.215C127.263 261.105 125.553 258.645 124.343 255.845C123.133 253.045 122.513 250.025 122.513 246.785C122.513 243.545 123.123 240.515 124.343 237.725C125.563 234.935 127.243 232.475 129.403 230.355C131.563 228.245 134.093 226.595 136.993 225.425C139.893 224.255 143.013 223.665 146.343 223.665C150.143 223.665 153.733 224.445 157.103 226.005C160.473 227.565 163.233 229.715 165.363 232.445L157.613 239.425C156.163 237.545 154.483 236.135 152.583 235.195C150.683 234.255 148.603 233.785 146.333 233.785C144.543 233.785 142.883 234.115 141.373 234.775C139.853 235.435 138.533 236.345 137.403 237.495C136.273 238.645 135.393 240.015 134.773 241.595C134.153 243.175 133.843 244.905 133.843 246.785C133.843 248.665 134.163 250.405 134.803 252.005C135.443 253.605 136.353 254.995 137.523 256.165C138.693 257.335 140.063 258.255 141.623 258.915C143.183 259.575 144.883 259.905 146.713 259.905C148.543 259.905 150.053 259.605 151.483 259.005C152.913 258.405 154.143 257.575 155.163 256.505C156.193 255.435 156.913 254.225 157.343 252.855H145.233V243.315H169.253V246.515C169.253 249.885 168.683 252.995 167.553 255.835C166.423 258.675 164.843 261.155 162.813 263.265C160.783 265.375 158.383 267.015 155.603 268.165C152.823 269.315 149.793 269.895 146.513 269.895L146.533 269.905Z" fill="white"/>
<path d="M206.033 271.825L203.083 268.115C201.633 268.675 200.123 269.105 198.563 269.425C197.003 269.745 195.373 269.905 193.663 269.905C190.293 269.905 187.153 269.315 184.243 268.145C181.343 266.975 178.803 265.325 176.623 263.215C174.443 261.105 172.743 258.645 171.533 255.845C170.323 253.045 169.703 250.025 169.703 246.785C169.703 243.545 170.313 240.515 171.533 237.725C172.753 234.935 174.443 232.475 176.623 230.355C178.803 228.245 181.343 226.595 184.243 225.425C187.143 224.255 190.283 223.665 193.663 223.665C197.043 223.665 200.173 224.255 203.083 225.425C205.983 226.605 208.523 228.245 210.703 230.355C212.883 232.465 214.583 234.925 215.793 237.725C217.003 240.525 217.623 243.545 217.623 246.785C217.623 250.025 217.033 252.835 215.863 255.595C214.693 258.345 213.073 260.775 211.023 262.865L215.383 268.375L206.033 271.835V271.825ZM193.673 259.785C194.143 259.785 194.603 259.765 195.053 259.725C195.503 259.685 195.943 259.615 196.363 259.535L192.133 254.155L201.483 250.695L204.173 254.155C204.853 253.135 205.383 251.985 205.743 250.725C206.103 249.465 206.283 248.155 206.283 246.785C206.283 244.905 205.963 243.175 205.323 241.595C204.683 240.015 203.793 238.645 202.663 237.495C201.533 236.345 200.193 235.435 198.663 234.775C197.133 234.115 195.463 233.785 193.663 233.785C191.863 233.785 190.203 234.115 188.663 234.775C187.123 235.435 185.793 236.345 184.663 237.495C183.533 238.645 182.643 240.015 182.003 241.595C181.363 243.175 181.043 244.905 181.043 246.785C181.043 248.665 181.363 250.335 182.003 251.945C182.643 253.545 183.533 254.925 184.663 256.075C185.793 257.225 187.133 258.135 188.663 258.795C190.193 259.455 191.863 259.785 193.663 259.785H193.673Z" fill="white"/>
</svg>
